<svg width="1023" height="616" viewBox="0 0 1023 616" fill="none" xmlns="http://www.w3.org/2000/svg">
<path d="M0 344.4C5.9057 340.357 10.0286 334.779 14.9932 330.118C19.6079 325.786 23.9898 321.205 28.4627 316.723C32.6819 312.494 36.4175 307.41 44.4704 309.28C35.1465 290.269 36.4102 274.108 54.173 262.453C65.946 254.728 81.3026 256.528 91.3596 265.463C103.398 276.159 105.019 288.96 96.8122 308.667C97.9081 309.652 99.289 309.552 100.587 309.519C135.731 308.626 170.894 308.585 206.02 309.384C214.408 309.575 219.771 307.636 224.345 301.366C226.235 298.775 229.031 298.603 231.97 298.608C254.802 298.647 277.634 298.599 300.465 298.63C303.534 298.634 307.025 298.896 308.342 295.696C309.676 292.454 308.35 289.061 305.894 286.545C298.095 278.556 290.203 270.657 282.297 262.774C279.18 259.667 275.01 259.47 271.058 259.59C245.731 260.361 220.401 259.811 195.074 259.981C192.076 260.001 189.126 259.876 186.315 261.388C184.027 262.619 181.745 261.822 180.925 259.493C179.506 255.463 176.341 253.009 173.554 250.198C165.693 242.27 157.757 234.416 149.866 226.517C147.99 224.64 146.292 222.782 143.303 222.385C140.755 222.047 139.715 219.912 140.728 217.462C141.723 215.057 143.889 214.136 145.999 215.721C148.678 217.734 151.564 217.623 154.55 217.622C170.715 217.622 186.882 217.742 203.046 217.545C207.214 217.494 210.328 218.7 213.215 221.667C216.327 224.865 219.049 228.539 223.098 230.76C224.763 231.673 224.997 233.19 223.69 234.468C222.475 235.657 221.207 234.913 220.3 233.743C219.589 232.826 219.036 231.787 218.316 230.878C212.241 223.215 205.247 218.839 194.51 219.77C181.279 220.917 167.87 219.992 154.537 220.024C152.794 220.028 150.884 219.42 149.281 220.847C149.324 223.041 151.184 223.888 152.399 225.12C160.939 233.78 169.48 242.44 178.133 250.986C182.391 255.191 187.916 257.404 193.663 257.465C219.992 257.745 246.338 258.047 272.648 257.287C279.191 257.098 282.994 257.869 287.143 263.232C292.705 270.422 299.864 276.381 306.37 282.836C310.334 286.768 311.37 286.573 312.958 281.494C321.117 255.407 333.785 231.797 351.438 210.878C355.938 205.547 355.789 204.665 350.825 199.697C338.341 187.199 325.824 174.732 313.392 162.182C311.378 160.15 309.431 158.884 306.38 159.562C302.909 160.333 300.045 158.675 298.143 155.972C296.047 152.991 293.324 152.678 290.015 152.254C281.093 151.109 273.95 153.657 268.768 161.031C261.323 171.628 251.282 174.112 238.598 173.686C210.298 172.737 181.945 173.309 153.614 173.419C149.65 173.434 146.628 172.411 143.931 169.422C139.804 164.848 135.327 160.592 131.008 156.192C129.032 154.179 127.24 152.029 124.282 151.229C122.275 150.687 121.345 148.981 121.885 146.91C122.401 144.934 123.884 143.758 125.946 143.919C128.047 144.084 129.415 145.507 129.262 147.587C129.033 150.702 130.877 152.492 132.819 154.354C138.345 159.651 143.045 166.669 149.602 169.793C156.198 172.936 164.668 170.625 172.313 170.651C197.811 170.738 223.31 170.594 248.808 170.763C252.941 170.79 256.086 169.775 259.077 166.884C263.246 162.856 267.849 159.276 272.545 155.266C269.077 151.932 266.659 152.392 264.467 152.398C247.141 152.445 229.815 152.546 212.49 152.705C210.844 152.72 209.73 152.269 208.586 151.061C203.089 145.26 197.4 139.639 191.942 133.804C188.864 130.512 185.278 129.26 180.815 129.267C142.985 129.329 105.155 129.199 67.3261 129.326C62.3012 129.343 58.3465 128.268 55.0622 124.236C52.4769 121.061 49.576 118.086 45.0892 117.244C43.6669 116.977 42.5405 115.698 41.2966 117.43C41.1147 117.684 40.787 117.871 40.4879 117.995C36.6568 119.591 33.1351 115.437 30.4569 116.357C26.8832 117.584 23.9584 119.36 20.367 117.106C19.3119 116.443 18.2109 115.878 17.1295 116.618C13.7288 118.947 10.4679 118.897 6.93035 116.789C4.29982 115.221 3.01993 118.844 0.351452 118.941C0 115.969 -5.96046e-08 112.939 0.339109 109.536C3.39334 109.919 5.03631 114.563 9.19606 110.265C11.6679 107.711 15.7355 112.224 18.3055 112.013C21.2177 111.774 24.1097 108.746 27.777 110.099C28.3416 110.308 28.7708 110.959 29.1929 111.463C30.4508 112.967 31.604 112.801 32.9646 111.505C35.7676 108.836 38.7665 108.674 41.7213 111.264C42.5687 112.007 43.3029 112.403 44.3584 111.802C48.2585 109.582 49.4222 111.686 51.3335 115.037C54.4648 120.527 58.035 126.504 65.6735 126.556C81.8376 126.667 98.0035 126.634 114.168 126.522C119.009 126.489 123.847 126 129.546 125.67C128.128 124.045 127.524 123.268 126.835 122.577C112.131 107.823 97.3461 93.1477 82.7434 78.2937C77.8921 73.3588 72.3438 71.2334 65.4413 71.3084C45.9456 71.5201 26.4463 71.3747 6.94861 71.428C4.6319 71.4343 2.31618 71.8006 0 72C0 71.25 0 70.5 0 69.375C21.9927 68.9461 43.9855 68.9004 65.9782 68.8286C68.9313 68.8189 71.7874 69.0433 74.6028 67.2022C77.0833 65.5802 79.6357 66.5582 80.1925 69.7956C80.5674 71.9748 81.7709 73.3888 83.1887 74.8064C99.4507 91.0654 115.731 107.306 131.949 123.609C133.959 125.63 136.089 126.639 138.999 126.618C153.152 126.515 167.306 126.594 181.459 126.535C183.268 126.527 185.08 126.123 186.879 125.832C188.299 125.602 189.375 125.763 190.289 127.14C195.033 134.293 201.873 139.496 207.745 145.599C210.49 148.452 214.089 149.642 218.153 149.633C241.13 149.58 264.106 149.626 287.083 149.615C291.61 149.613 295.722 149.445 298.671 144.677C301.184 140.617 305.842 140.779 309.954 142.535C314.739 144.58 315.309 149.1 314.051 153.145C312.808 157.147 314.226 159.274 316.782 161.788C328.657 173.468 340.405 185.277 352.199 197.04C357.383 202.209 358.784 202.244 364.023 197.133C394.496 167.402 430.78 148.874 472.61 141.413C499.173 136.676 525.665 138.065 551.899 144.201C557.314 145.468 561.685 144.321 565.431 140.224C571.268 133.839 578.188 128.504 583.548 121.654C584.459 120.49 585.466 120.029 586.968 120.149C601.438 121.313 615.937 120.298 630.417 120.724C634.213 120.836 637.145 119.486 639.717 116.786C643.163 113.168 646.791 109.724 650.297 106.162C652.367 104.058 654.71 102.236 654.95 98.7887C655.087 96.8386 656.847 95.7001 658.971 95.8667C660.633 95.997 661.785 96.983 662.156 98.5933C662.608 100.553 662.178 102.808 660.177 103.153C655.186 104.013 652.786 108.022 649.665 111.083C645.87 114.805 641.703 118.217 638.698 122.679C637.699 124.162 636.536 124.383 634.868 124.185C620.102 122.431 605.274 123.796 590.479 123.411C588.221 123.352 586.059 124.365 584.531 125.756C577.542 132.116 570.716 138.663 564.849 145.835C565.707 148.229 567.579 148.291 569.069 148.788C592.22 156.52 613.341 167.982 632.423 183.19C634.31 184.694 636.191 185.676 638.728 185.667C681.217 185.517 723.707 185.469 766.197 185.303C773.222 185.275 775.075 186.01 780.167 191.236C787.957 199.232 795.831 207.152 803.857 214.909C806.608 217.568 807.636 220.355 807.547 224.172C807.416 229.783 806.746 235.461 808.359 241.041C808.928 243.007 807.844 244.269 805.64 244.117C779.522 242.311 753.372 243.536 727.243 243.552C719.521 243.557 713.842 241.499 709.073 235.559C706.539 232.402 703.946 229.017 699.363 228.16C697.439 227.8 696.52 225.877 697.001 223.798C697.364 222.23 698.429 221.142 700.061 220.861C702.155 220.5 703.983 221.377 704.371 223.363C705.829 230.821 712.565 233.935 716.874 239.03C718.18 240.574 720.051 240.609 721.934 240.607C747.596 240.587 773.258 240.533 798.92 240.658C803.16 240.678 804.464 239.214 804.949 234.927C806.103 224.718 803.726 216.54 795.259 209.977C789.902 205.826 785.452 200.487 780.698 195.581C776.224 190.964 771.072 188.797 764.446 188.68C746.12 188.356 727.81 188.521 709.486 188.77C689.335 189.043 669.173 188.501 649.015 188.357C646.411 188.338 643.703 187.991 641.319 189.598C641.376 191.449 642.882 192.156 643.922 193.125C665.843 213.562 682.431 237.666 693.477 265.517C695.081 269.561 697.352 270.899 701.685 270.879C735.344 270.725 769.006 270.791 802.666 270.893C805.725 270.902 808.02 270.112 810.166 267.854C815.561 262.181 821.262 256.8 826.678 251.145C829.046 248.673 831.642 247.622 835.069 247.645C850.066 247.741 865.066 247.794 880.06 247.553C886.084 247.456 891.697 245.255 895.984 240.959C909.038 227.883 922.7 215.404 934.916 201.502C935.243 201.129 935.655 200.425 935.929 200.471C942.494 201.566 947.363 194.355 954.18 196.76C954.952 197.033 956.255 196.819 956.538 197.292C959.301 201.916 963.795 200.541 967.785 200.6C976.115 200.723 984.448 200.64 992.78 200.661C995.284 200.667 997.757 200.778 999.905 199.035C1000.96 198.177 1002.47 197.676 1003.65 198.541C1007.35 201.262 1011.59 200.837 1015.68 200.583C1018.92 200.382 1020.85 202.532 1023.65 203.897C1024 205.389 1024 206.778 1024 208.583C1018.21 202.764 1011.65 201.109 1004.03 205.611C1002.95 206.249 1001.65 206.254 1000.7 205.491C997.374 202.818 993.466 203.385 989.68 203.375C974.515 203.334 959.349 203.438 944.185 203.295C939.7 203.252 936.188 204.695 933.062 207.878C921.623 219.53 909.38 230.483 898.841 242.89C893.338 249.368 888.53 251.374 880.175 250.711C865.767 249.567 851.202 250.462 836.705 250.302C833.085 250.263 830.374 251.352 827.87 253.948C822.832 259.172 817.555 264.164 811.675 269.941C816.141 271.372 819.489 271.074 822.67 270.781C827.799 270.309 831.638 271.985 834.932 275.887C837.611 279.059 840.884 281.722 843.677 284.807C847.294 288.803 850.697 292.472 857.07 290.791C860.121 289.987 862.876 291.988 864.432 294.893C865.448 296.788 866.608 298.11 869.005 298.066C874.137 297.972 879.271 298.037 885.679 298.037C880.514 295.339 875.378 298.632 871.668 295.777C871.751 295.046 871.835 294.315 871.918 293.584C876.766 293.584 881.615 293.561 886.463 293.614C887.082 293.62 888.174 293.926 888.242 294.257C889.437 300.125 894.122 297.916 897.396 297.943C919.226 298.119 941.059 298.178 962.889 297.975C975.108 297.861 987.323 297.181 999.538 296.731C1002.02 296.639 1004.05 297.41 1005.67 299.375C1001.7 303.533 996.574 301.911 992.077 301.893C986.115 301.869 980.09 301.616 974.108 301.192C966.657 300.663 959.006 300.769 951.441 300.799C926.96 300.897 902.478 300.615 877.996 300.535C874.837 300.525 871.678 300.934 868.517 300.978C866.335 301.009 865.378 302.34 864.306 303.944C861.534 308.093 857.245 309.457 853.058 307.75C848.976 306.086 846.761 301.995 848.023 297.041C848.722 294.296 848.026 292.646 846.166 290.911C843.609 288.524 840.682 286.325 838.798 283.463C831.986 273.118 821.972 272.32 811.11 273.326C809.112 273.511 807.634 274.23 806.323 275.604C798.395 283.914 789.599 291.391 782.407 300.399C781.18 301.937 779.848 302.157 778.079 302.139C755.759 301.912 733.438 301.731 711.118 301.579C705.954 301.544 704.7 302.764 705.345 307.792C707.315 323.162 708.954 338.534 707.482 354.058C707.058 358.527 706.651 362.998 706.232 367.468C706.057 369.341 705.929 371.296 707.868 372.338C709.705 373.326 710.274 371.243 711.463 370.633C714.464 369.092 717.761 368.374 720.536 371.187C722.094 372.766 723.125 373.307 724.972 371.357C727.812 368.359 731.728 368.798 734.659 372.09C736.43 374.078 737.842 373.055 739.259 371.675C742.499 368.521 745.785 368.303 749.018 371.627C750.328 372.975 751.49 372.987 752.901 371.814C756.649 368.696 759.523 370.168 764.029 371.694C772.822 374.671 777.505 381.536 783.736 386.984C785.106 388.183 786.331 388.021 787.857 387.528C792.595 385.996 796.501 387.299 798.983 391.615C800.373 394.031 802.217 394.639 804.743 394.621C813.075 394.561 821.408 394.627 829.74 394.588C830.88 394.582 832.323 394.638 833.108 394.014C839.965 388.561 846.014 382.303 851.63 375.571C850.905 374.965 850.602 374.541 850.424 374.588C842.444 376.716 836.737 373.442 831.788 367.379C829.097 364.081 826.156 360.811 821.886 359.186C820.195 358.543 819.51 356.859 820.026 355.01C820.526 353.219 821.874 352.166 823.663 352.062C825.503 351.955 827.435 353.022 827.264 354.767C826.698 360.55 831.427 362.702 834.484 365.887C837.604 369.138 840.246 372.713 845.882 372.952C852.29 373.223 856.866 371.604 861.202 366.826C868.471 358.815 876.389 351.394 884.04 343.73C885.108 342.659 886.086 341.573 886.403 340C887.266 335.722 889.613 334.875 893.267 337.102C894.111 337.616 895.029 338.383 895.918 338.391C907.046 338.487 918.215 339.5 929.276 337.815C931.839 337.425 933.322 337.628 934.607 339.68C933.669 341.644 932.109 342.229 930.394 341.963C919.788 340.321 909.12 341.434 898.487 341.25C893.478 341.163 888.816 343.092 885.146 346.699C878.373 353.358 871.561 359.985 865.014 366.863C855.898 376.439 846.056 385.281 836.971 394.882C835.627 396.302 833.772 397.364 833.554 399.629C833.444 400.771 832.694 401.679 831.578 401.391C827.244 400.274 822.303 403.602 818.319 398.576C815.656 395.218 801.511 397.524 798.726 400.966C795.5 404.952 791.373 406.202 787.246 404.166C782.977 402.059 781.223 398.448 782.296 393.832C782.902 391.225 782.321 389.33 780.478 387.542C777.25 384.408 774.103 381.191 770.923 378.008C768.802 375.885 766.339 375.15 763.705 376.804C760.041 379.105 756.464 379.755 752.779 377.011C751.52 376.073 750.225 376.046 749.144 377.066C747.172 378.926 744.255 379.163 742.588 378.306C738.369 376.139 734.662 377.327 730.665 378.397C728.617 378.944 726.401 379.118 724.672 377.107C723.653 375.923 722.35 376.267 721.05 377.002C717.534 378.99 714.117 379.457 710.438 376.959C707.65 375.066 704.996 376.822 703.92 381.291C701.855 389.871 699.731 398.419 696.876 406.787C692.502 419.611 686.864 431.828 679.975 443.484C679.065 445.023 677.897 446.512 678.105 448.385C679.523 450.027 681.293 449.57 682.899 449.573C701.73 449.598 720.562 449.573 739.393 449.595C744.316 449.601 748.503 447.839 751.867 444.337C757.402 438.577 763.593 433.443 768.486 427.073C769.66 425.546 771.069 425.264 772.876 425.479C783.166 426.706 793.519 425.418 803.827 426.165C804.613 426.222 805.565 426.048 806.211 425.629C810.379 422.919 812.961 423.317 813.729 428.846C813.905 430.114 815.334 431.301 816.37 432.343C827.889 443.919 839.454 455.451 850.984 467.016C854.374 470.416 858.29 471.528 863.164 471.348C874.48 470.93 885.819 471.13 897.148 471.073C900.462 471.056 903.783 471.369 906.866 469.521C908.713 468.414 910.447 469.177 911.643 470.87C912.497 472.077 912.428 473.425 911.528 474.592C910.228 476.277 908.431 476.752 906.67 475.614C904.079 473.942 901.261 474.084 898.451 474.16C884.307 474.543 870.138 473.376 856.014 474.861C854.501 475.02 853.574 474.284 852.623 473.222C840.389 459.559 826.881 447.146 814.071 434.046C810.789 430.69 806.482 429.338 801.911 429.25C793.581 429.091 785.247 429.206 776.914 429.169C773.035 429.152 769.867 430.526 767.146 433.352C762.293 438.394 757.029 443.06 752.411 448.301C749.425 451.69 746.097 452.572 741.859 452.531C723.034 452.346 704.207 452.372 685.381 452.302C678.354 452.276 672.788 454.843 668.52 460.66C664.684 465.888 660.267 470.687 656.176 475.731C654.664 477.595 652.473 479.039 651.77 482.678C661.895 481.469 671.78 485.168 681.3 480.457C683.791 479.224 686.224 480.314 686.622 482.431C687.83 488.851 693.306 491.699 697.01 496.001C698.96 498.266 701.133 500.384 703.442 502.28C705.489 503.961 707.559 505.293 709.038 501.205C710.178 498.053 712.484 498.694 715.329 502.854C716.418 501.691 715.593 498.621 718.523 499.377C720.496 499.886 722.462 500.695 721.332 503.704C723.651 502.738 722.716 500.22 724.938 499.341C726.872 499.398 728.637 500.231 729.249 502.84C731.164 502.365 730.268 499.064 732.71 499.329C734.751 499.55 735.748 500.987 736.579 502.784C737.506 504.789 739.582 504.596 741.406 504.597C760.237 504.612 779.07 504.753 797.9 504.547C806.835 504.449 812.495 498.415 817.808 492.178C819.169 490.58 817.86 489.418 816.796 488.346C812.104 483.612 807.393 478.897 802.7 474.163C801.339 472.79 799.664 472.205 797.788 471.971C785.321 470.416 772.822 472.883 760.348 471.654C758.718 471.494 757.645 472.832 756.603 473.896C753.225 477.343 749.827 480.775 746.574 484.338C745.632 485.371 744.925 486.422 743.34 486.132C742.426 485.965 741.751 485.413 741.631 484.544C741.404 482.899 742.652 482.317 743.876 481.663C748.241 479.333 751.069 475.279 754.476 471.899C756.637 469.754 758.87 468.727 761.942 468.64C774.742 468.277 787.577 469.602 800.349 467.87C801.602 467.7 802.715 468.182 803.328 469.295C807.356 476.619 814.342 481.234 819.807 487.239C822.256 489.93 822.332 491.643 819.77 494.288C815.663 498.528 810.539 501.912 808.381 507.926C807.606 510.086 805.105 510.123 803.158 509.045C799.917 507.251 796.434 507.336 792.935 507.339C765.105 507.361 737.274 507.353 709.445 507.457C706.024 507.469 703.354 506.469 701.044 503.937C698.239 500.863 695.08 498.107 692.307 495.005C686.083 488.043 678.329 485.824 669.111 485.119C654.546 484.005 643.007 487.447 632.008 498.015C618.166 511.315 600.894 520.219 582.969 527.415C581.319 528.077 579.431 528.427 578.109 530.271C579.298 532.153 581.265 531.726 582.935 531.728C615.932 531.764 648.931 531.937 681.923 531.543C686.435 531.489 688.733 532.539 691.713 535.763C701.097 545.911 711.052 555.537 720.937 565.211C724.115 568.321 728.324 569.727 732.733 569.736C772.062 569.814 811.392 569.796 850.722 569.817C852.942 569.818 855.093 569.825 856.223 567.358C858.352 562.712 862.406 562.057 866.759 562.753C869.351 563.167 871.117 562.574 872.959 560.734C893.227 540.487 913.564 520.308 933.903 500.131C934.885 499.156 935.835 498.193 935.674 496.73C935.175 492.201 937.8 491.497 941.49 491.62C946.642 491.791 951.804 491.8 956.957 491.691C959.358 491.641 960.43 492.657 960.283 494.907C960.077 498.076 961.729 499.193 964.545 498.804C970.477 497.986 974.455 500.845 978.443 504.898C993.279 519.974 1008.41 534.761 1023.71 549.828C1024 551.067 1024 552.133 1024 553.6C1015.66 547.337 1008.75 539.187 1001.12 531.789C992.031 522.975 983.162 513.931 974.212 504.971C972.661 503.419 971.144 501.988 968.705 501.96C958.722 501.842 948.74 501.642 938.758 501.475C936.543 501.438 935.039 502.781 933.614 504.205C913.928 523.873 894.247 543.546 874.583 563.235C873.435 564.384 872.014 565.488 872.93 567.516C873.742 569.316 875.212 569.817 876.998 569.78C890.81 569.496 904.641 570.454 918.434 569.235C920.539 569.049 921.891 569.763 923.184 571.047C922.616 573.315 920.95 573.987 919.33 573.737C905.803 571.646 892.156 573.806 878.613 572.478C875.906 572.213 874.012 573.444 872.38 575.76C867.893 582.127 860.804 582.066 856.43 575.616C855.136 573.708 853.688 573.024 851.573 572.78C844.907 572.008 838.26 572.863 831.608 572.831C809.782 572.726 787.956 573.268 766.129 572.507C755.82 572.147 745.331 571.749 735.216 572.875C726.881 573.804 722.129 572.846 716.729 565.769C709.315 556.053 699.551 548.145 690.925 539.335C687.569 535.908 683.855 534.284 678.956 534.337C660.971 534.532 642.982 534.401 624.995 534.443C622.724 534.449 620.304 533.946 617.57 536.215C626.072 544.609 632.336 555.683 646.833 554.652C656.773 553.944 666.797 555.635 676.716 553.724C678.22 553.434 679.497 554.062 679.457 555.775C679.42 557.394 678.229 558.096 676.688 557.891C666.239 556.501 655.739 557.576 645.269 557.23C641.987 557.122 638.735 556.774 635.699 559.003C633.907 560.319 631.208 559.562 630.842 557.278C629.865 551.2 624.689 548.456 621.452 544.175C615.511 536.317 608.086 533.251 598.136 534.24C589.39 535.109 580.397 533.624 571.682 534.636C562.231 535.734 552.395 535.775 543.577 540.05C543.39 542.536 545.083 543.6 546.321 544.845C558.658 557.252 571.085 569.569 583.354 582.043C585.768 584.496 588.347 585.613 591.731 585.594C614.533 585.472 637.335 585.434 660.137 585.354C661.293 585.35 662.819 585.656 663.544 585.057C668.741 580.762 670.111 584.482 673.17 588.275C678.99 595.493 686.103 601.673 692.73 608.233C694.086 609.575 695.726 609.532 697.295 608.452C697.564 608.267 697.731 607.939 697.994 607.743C701.914 604.832 705.631 608.638 709.006 608.189C712.721 607.695 716.097 604.744 719.64 608.384C720.858 609.635 721.926 609.6 723.056 608.486C726.019 605.567 729.198 605.853 732.438 607.867C733.18 608.328 734.06 609.002 734.675 608.5C740.726 603.558 745.3 609.088 750.514 610.894C745.65 612.221 741.618 618.06 735.699 613.22C730.375 615.76 724.833 613.389 719.58 614.011C716.468 614.379 713.688 615.715 710.851 613.712C709.388 612.679 708.22 612.566 706.823 613.679C703.931 615.983 701.246 614.767 698.044 613.829C689.121 611.215 684.051 604.014 678.208 597.922C671.577 591.009 664.151 587.811 654.52 587.976C633.363 588.337 612.194 587.966 591.031 588.094C586.86 588.119 583.825 586.777 580.914 583.824C567.932 570.651 554.713 557.711 541.703 544.565C538.775 541.605 535.878 540.483 531.533 540.988C507.028 543.839 482.664 542.872 458.64 536.89C454.865 535.95 452.081 536.426 449.24 539.34C439.238 549.601 428.235 559 419.151 569.997C414.375 575.777 410.288 578.224 403.365 576.298C402.593 576.083 401.681 576.418 400.878 576.267C387.361 573.732 376.945 578.564 369.208 589.636C360.548 602.029 348.801 606.798 333.934 604.334C331.497 603.93 328.913 604.474 326.451 604.156C320.488 603.387 316.949 606.439 314.764 611.42C313.172 615.047 311.138 616.519 307.469 614.145C305.513 612.88 303.29 613.178 301.145 613.172C281.981 613.123 262.816 613.122 243.652 613.041C241.792 613.033 239.575 613.791 238.255 611.476C239.81 609.175 242.189 610.002 244.205 609.994C263.369 609.926 282.534 609.891 301.697 609.994C306.686 610.02 310.555 607.56 315.36 605.943C313.253 603.652 311.479 604.26 309.927 604.258C269.265 604.219 228.604 604.234 187.942 604.214C185.736 604.213 183.756 604.454 181.833 605.831C180.049 607.107 177.938 606.882 176.483 605.021C175.331 603.546 175.429 601.853 176.676 600.44C178.216 598.698 180.169 598.314 182.001 599.816C184.291 601.694 186.886 601.619 189.567 601.618C216.563 601.605 243.561 601.489 270.556 601.675C285.882 601.781 301.185 600.553 316.524 601.272C321.792 601.519 323.421 596.417 326.72 593.49C324.866 591.614 323.398 590.655 321.148 590.732C315.498 590.926 309.92 591.531 304.153 591.006C299.97 590.625 295.775 591.485 291.428 588.734C294.979 586.191 297.736 584.799 302.53 585.242C306.486 585.607 311.129 586.468 315.355 585.015C316.559 584.601 329.345 585.317 330.443 586.044C332.2 587.207 333.577 586.652 334.945 585.474C335.449 585.04 336.02 584.636 336.392 584.101C342.87 574.758 351.876 571.827 362.786 573.557C364.087 573.763 365.497 573.353 366.774 573.622C378.754 576.147 386.618 569.79 393.694 561.449C395.099 559.792 395.288 557.874 395.979 556.038C396.691 554.143 398.219 553.173 400.339 553.493C402.489 553.817 403.549 555.211 403.617 557.271C403.685 559.355 402.634 560.896 400.539 561.206C393.761 562.21 391.581 568.389 387.417 572.739C394.942 572.769 402.002 575.061 409.601 571.035C425.183 562.782 434.587 548.266 446.858 536.684C447.158 536.4 447.124 535.762 447.26 535.232C445.953 533.184 443.669 532.903 441.695 532.232C417.277 523.921 395.155 511.534 375.576 494.747C371.674 491.402 368.697 491.428 365.434 495.27C363.822 497.169 361.988 498.895 360.148 500.584C358.05 502.51 356.945 504.41 357.771 507.575C358.806 511.541 356.991 514.956 353.339 516.701C349.244 518.658 344.848 518.413 342.055 514.527C339.861 511.473 337.352 510.841 333.983 510.859C326.155 510.9 318.326 510.718 310.498 510.571C306.822 510.501 303.827 511.55 301.15 514.336C293.994 521.785 286.58 528.986 279.264 536.281C277.26 538.279 275.506 540.239 274.87 543.296C274.177 546.62 271.453 547.588 268.82 545.335C266.651 543.48 264.412 543.337 261.895 543.338C237.065 543.344 212.234 543.438 187.405 543.22C182.52 543.177 180.724 544.322 180.002 549.624C177.376 568.924 163.521 583.237 144.421 587.525C126.044 591.651 107.037 584.219 96.4622 568.287C93.9897 564.562 91.0911 562.949 86.9865 563.29C75.8396 564.219 64.6918 564.207 53.5376 563.622C51.0558 563.492 49.2738 564.739 48.0363 566.519C41.3139 576.187 32.0791 578.741 20.7489 577.566C14.2093 576.888 7.44686 576.736 0.411861 577.944C-5.96046e-08 576.933 0 575.867 0.389135 574.542C9.69973 575.41 18.718 574.042 27.5834 574.979C36.2408 575.894 40.2502 570.44 44.8771 565.019C43.157 563.5 41.377 563.89 39.8622 564.089C33.124 564.974 28.3445 562.162 23.7419 557.373C16.0529 549.374 8.482 541.211 0 534C0 533.25 0 532.5 0.341493 531.412C2.47079 531.754 3.62058 533.225 4.91014 534.513C12.8111 542.403 20.6941 550.31 28.5978 558.197C31.9537 561.546 45.7883 563.806 49.1324 560.664C55.6085 554.581 63.2219 549.418 67.2796 541.082C68.5414 538.49 70.4277 537.392 72.8663 539.009C76.8966 541.683 81.2688 540.353 85.5049 540.592C87.2321 540.689 88.3309 539.735 88.6164 537.991C89.692 531.42 91.7505 525.138 94.7102 518.823C57.5458 499.253 33.6013 469.617 25.8798 428.482C18.1523 387.316 29.3744 350.768 56.9858 318.971C54.3556 317.052 52.3269 315.63 50.3614 314.125C44.6842 309.78 38.7144 310.166 33.5809 315.315C27.3457 321.57 21.282 328.003 14.8899 334.091C9.97444 338.774 5.91691 344.391 0 348C0 346.933 0 345.867 0 344.4ZM331.991 444.126C331.373 443.906 330.756 443.497 330.138 443.495C315.142 443.44 300.146 443.348 285.151 443.469C281.59 443.498 278.37 445.018 275.781 447.608C268.125 455.266 260.037 462.553 253.001 470.744C249.528 474.787 246.441 475.618 241.409 475.43C226.765 474.884 212.09 475.21 197.427 475.16C195.539 475.153 193.871 475.513 192.266 476.624C190.624 477.761 188.742 477.882 187.292 476.239C186.035 474.814 186.07 473.058 187.269 471.66C188.64 470.061 190.56 469.938 192.251 471.068C194.007 472.241 195.814 472.662 197.884 472.655C212.381 472.608 226.877 472.597 241.373 472.637C245.281 472.647 248.372 471.231 251.107 468.41C257.833 461.473 265.081 455.009 271.437 447.757C275.765 442.82 279.473 440.308 286.871 441.237C299.188 442.785 311.794 440.645 324.286 441.53C326.005 441.652 328.02 442.036 329.371 439.818C329.179 439.194 329.056 438.362 328.687 437.657C321.789 424.49 316.166 410.821 312.023 396.526C310.508 391.297 306.085 389.473 301.176 389.456C269.017 389.345 236.858 389.423 204.7 389.346C201.531 389.338 199.462 390.384 197.708 393.082C195.549 396.405 192.102 398.102 188.197 396.948C185.106 396.035 183.204 396.978 181.147 399.045C168.456 411.796 155.694 424.477 142.942 437.168C141.741 438.363 140.762 439.603 140.406 441.35C139.669 444.971 137.251 445.592 134.483 443.836C132.479 442.564 130.497 442.37 128.325 442.369C115.162 442.368 101.998 442.355 88.835 442.349C86.6714 442.348 84.7191 442.499 82.799 444.04C79.058 447.04 75.6944 442.994 72.4633 443.038C69.1863 443.083 65.8854 446.988 62.117 443.993C60.3522 442.591 59.2504 442.363 57.4426 443.911C52.3321 448.288 46.2185 440.345 40.8373 445.1C39.8897 445.937 37.6595 445.074 36.4774 443.533C35.7116 442.534 34.6011 442.168 33.2722 443.115C33.1842 443.461 32.8968 443.957 32.9815 444.378C33.2101 445.514 33.5186 446.647 33.933 447.729C45.0462 476.736 64.1766 498.729 91.4105 513.744C95.1679 515.816 97.3269 515.296 100.262 512.116C113.471 497.808 129.825 493.106 148.398 498.853C166.627 504.493 177.072 517.562 180.192 536.278C180.772 539.757 182.044 540.678 185.29 540.646C211.602 540.387 237.915 540.249 264.228 540.049C264.953 540.043 265.913 540.306 266.243 539.203C265.451 538.06 264.458 538.198 263.19 538.283C258.088 538.622 252.968 538.67 247.857 538.889C245.108 539.007 244.423 537.463 244.514 535.106C244.59 533.138 244.756 531.509 247.463 531.535C253.601 531.595 259.742 531.457 265.881 531.374C267.858 531.348 268.987 532.113 269.186 534.224C269.33 535.753 268.521 537.872 270.76 538.471C272.872 539.037 274.079 537.272 275.351 536.005C283.262 528.128 291.287 520.358 298.968 512.262C302.123 508.938 305.494 507.623 309.993 507.751C318.317 507.988 326.654 507.741 334.985 507.807C337.715 507.829 339.675 507.15 341.078 504.506C342.977 500.926 346.656 498.74 350.244 500.128C354.829 501.901 357.028 499.725 359.576 496.974C361.272 495.141 363.06 493.39 364.854 491.65C367.089 489.483 367.132 487.339 364.882 485.189C352.269 473.138 342.031 459.197 331.991 444.126ZM124.509 329.056C120.183 329.103 115.814 328.8 111.547 329.323C108.83 329.656 107.432 328.93 105.649 326.982C101.322 322.254 96.5717 317.913 91.9859 313.41C83.058 320.174 73.703 323.15 63.018 320.438C60.4714 319.792 58.9861 321.452 57.55 323.132C29.2431 356.256 20.2407 394.024 30.3804 436.362C31.2572 440.023 33.5497 440.727 36.5258 438.223C39.4085 435.799 42.2823 435.958 45.0344 437.963C46.3106 438.892 47.2343 439.402 48.4956 438.382C52.4374 435.193 56.0452 436.243 59.4071 439.25C64.5065 436.172 64.5092 436.165 71.3747 438.783C72.6823 439.281 73.5291 438.572 74.5172 437.88C77.2235 435.986 80.4535 435.791 82.8011 437.752C84.88 439.488 86.892 439.708 89.2007 439.698C102.527 439.644 115.854 439.649 129.179 439.442C133.9 439.369 138.221 437.82 141.676 434.361C153.92 422.104 166.155 409.837 178.438 397.618C180.677 395.39 182.011 393.316 181.146 389.742C180.111 385.468 182.039 381.894 186.188 379.928C190.561 377.857 194.784 378.654 197.216 382.624C199.627 386.559 202.585 386.934 206.47 386.412C208.933 386.081 211.454 386.103 213.949 386.101C242.103 386.085 270.257 386.108 298.411 386.066C300.311 386.064 302.33 386.578 304.536 385.245C302.319 383.854 300.149 384.319 298.111 384.317C268.957 384.282 239.803 384.24 210.65 384.327C206.695 384.339 203.736 383.184 201.021 380.189C196.327 375.013 191.214 370.215 186.268 365.268C184.863 363.863 183.563 362.439 181.292 362.257C178.994 362.074 177.598 360.582 177.977 358.175C178.288 356.198 179.589 354.838 181.727 354.825C184.155 354.812 185.474 356.359 185.541 358.593C185.609 360.875 186.891 362.23 188.329 363.646C191.058 366.335 194.1 368.8 196.379 371.834C202.058 379.394 209.099 381.591 218.66 381.352C248.094 380.614 277.558 381.083 307.544 381.083C307.584 375.593 306.291 370.292 305.654 364.928C304.811 357.822 304.526 350.682 304.52 343.521C304.518 340.806 304.084 338.083 300.237 338.09C282.079 338.124 263.917 337.892 245.765 338.204C238.603 338.328 237.701 338.418 232.475 332.978C228.208 328.534 223.777 324.245 219.387 319.919C214.712 315.313 214.696 315.329 210.035 319.928C208.849 321.098 207.478 322.133 206.507 323.46C202.973 328.291 198.178 329.238 192.475 329.179C170.154 328.947 147.829 329.071 124.509 329.056ZM489.276 425.759C488.87 428.393 488.523 431.038 488.049 433.66C486.675 441.259 485.844 441.766 478.527 439.68C465.722 436.03 454.086 430.076 443.462 422.062C441.75 420.771 440.245 418.735 437.506 418.988C436.788 422.025 439.077 423.006 440.476 424.486C441.381 425.444 442.69 426.454 441.49 427.85C440.377 429.144 439.112 428.284 437.918 427.582C436.057 426.486 434.639 424.219 431.958 424.925C431.304 426.51 432.042 427.423 432.965 428.149C438.577 432.561 443.973 437.33 450.855 439.765C452.17 440.23 453.416 440.592 453.742 442.132C453.936 443.044 453.52 443.786 452.757 444.237C451.358 445.063 450.266 444.388 449.173 443.464C443.701 438.837 437.14 435.707 431.824 430.844C430.325 429.472 428.458 428.291 426.596 430.387C424.587 432.648 425.995 434.362 427.742 435.886C431.897 439.509 436.427 442.62 441.101 445.524C442.906 446.646 445.498 447.496 443.842 450.331C442.031 453.432 439.776 451.539 437.928 450.263C432.995 446.857 428.06 443.438 423.34 439.75C420.24 437.328 418.304 438.387 416.312 441.064C414.071 444.075 416.318 445.648 418.198 447.256C428.812 456.334 440.909 462.96 453.645 468.504C455.912 469.49 458.772 469.959 457.427 473.603C456.018 477.424 453.514 475.642 451.303 474.73C438.454 469.432 426.515 462.561 415.545 454.002C414.235 452.98 413.197 451.081 410.649 451.842C411.325 454.604 413.559 455.878 415.429 457.332C430.186 468.803 446.509 477.271 464.402 482.709C468.669 484.006 469.32 485.772 467.251 489.652C465.643 492.667 463.276 491.353 461.154 490.744C440.502 484.813 422.075 474.656 405.704 460.849C402.098 457.808 399.984 458.299 397.113 461.57C390.41 469.205 383.463 476.627 376.543 484.069C373.523 487.315 373.668 489.832 377.219 492.79C395.584 508.078 415.856 519.993 438.359 528.078C475.57 541.446 513.46 543.277 551.944 534.713C558.292 533.3 560.102 530.763 558.449 524.849C554.643 511.224 550.54 497.682 546.559 484.106C545.762 481.388 544.117 480.35 541.273 481.163C538.875 481.849 536.418 482.338 533.97 482.833C531.834 483.264 529.492 483.933 528.818 480.766C528.22 477.962 529.762 476.898 532.301 476.462C534.427 476.097 536.502 475.422 538.589 474.846C542.777 473.692 543.77 470.234 540.811 467.192C539.095 465.429 537.075 466.247 535.159 466.562C526.457 467.995 517.785 469.676 508.896 469.357C507.139 469.294 505.367 469.146 505.313 466.867C505.262 464.672 506.952 464.188 508.716 464.051C510.376 463.921 512.045 463.853 513.71 463.848C520.926 463.827 527.923 462.49 534.81 460.433C537.281 459.695 538.567 458.239 537.735 455.619C536.889 452.956 534.875 454.087 533.153 454.399C525.293 455.823 517.484 457.687 509.412 457.367C507.754 457.301 505.826 457.837 503.863 455.25C514.865 453.631 525.691 454.533 536.481 449.695C530.731 445.993 525.315 452.706 520.509 448.14C524.084 443.846 530.751 446.719 533.546 441.67C531.748 439.711 530.014 440.618 528.256 440.95C519.565 442.591 510.82 443.572 501.941 443.331C497.807 443.219 495.662 442.013 496.459 437.363C497.16 433.271 497.482 429.096 497.693 424.943C497.866 421.552 499.305 420.205 502.723 420.453C509.246 420.927 515.695 420.156 522.041 418.635C523.507 418.284 525.408 418.338 525.867 416.358C524.828 414.911 523.672 415.454 522.557 415.67C501.324 419.779 481.519 416.482 463.362 404.38C461.857 403.377 460.184 402.128 457.285 402.895C465.37 410.761 474.697 415.01 484.734 417.476C489.459 418.637 491.15 420.343 489.276 425.759ZM363.728 201.368C361.47 204.048 361.82 206.496 364.346 208.792C365.825 210.137 367.347 211.453 368.689 212.927C371.572 216.094 373.863 215.828 376.918 212.713C387.22 202.206 398.674 193.082 411.371 185.572C415.631 183.051 417.607 183.801 419.22 188.299C420.471 191.79 417.822 192.659 415.766 193.92C404.062 201.103 393.41 209.574 383.844 219.447C381.352 222.019 381.072 223.888 383.89 226.428C395.275 236.686 406.583 247.03 417.783 257.487C420.148 259.695 421.7 259.673 424.022 257.472C428.126 253.58 432.539 250.012 436.834 246.322C438.218 245.133 439.596 243.738 442.122 245.993C436.961 251.268 429.779 254.468 424.653 262.62C431.776 259.776 431.703 263.943 432.109 267.228C434.495 267.618 435.313 265.871 436.57 264.91C440.803 261.675 445.036 258.44 449.244 255.173C452.245 252.844 454.745 252.434 456.795 256.443C458.201 259.194 460.611 261.028 463.766 259.511C467.134 257.891 465.833 254.96 464.711 252.566C462.785 248.453 464.433 246.558 468.296 245.125C480.759 240.501 493.567 237.944 506.874 237.952C514.781 237.957 514.828 237.945 515.342 245.673C515.525 248.437 516.919 249.896 519.516 250.502C521.954 251.071 523.187 249.912 524.127 247.807C526.768 241.895 526.817 241.917 531.405 239.371C530.313 235.18 524.21 237.714 523.172 233.368C525.728 229.803 529.528 233.849 532.508 231.856C531.655 229.553 529.702 229.54 528.013 229.206C521.472 227.912 514.886 227.058 508.195 227.435C506.471 227.532 504.361 227.63 504.406 225.395C504.455 223.004 506.568 223.474 508.255 223.71C515.833 224.769 523.564 224.787 530.999 226.766C534.747 227.764 536.718 226.409 537.717 222.93C539.737 215.892 541.815 208.87 543.799 201.822C545.482 195.839 545.061 194.947 538.829 193.703C512.695 188.488 486.858 189.537 461.424 197.79C440.503 204.58 422.004 215.529 405.797 230.366C403.165 232.776 400.815 234.916 397.526 231.089C394.091 227.093 397.799 225.467 399.864 223.475C406.358 217.211 413.511 211.729 421.139 206.94C458.474 183.502 498.717 176.31 541.862 185.583C547.387 186.77 548.555 185.559 550.335 178.911C551.675 173.906 548.451 173.231 545.079 172.53C533.666 170.156 522.221 167.976 510.479 168.273C506.861 168.365 504.817 167.059 505.004 163.028C505.195 158.909 507.789 158.674 510.88 158.899C523.83 159.84 536.755 160.954 549.389 164.195C550.83 164.565 552.626 165.35 553.578 163.898C556.077 160.087 557.747 155.674 557.338 151.219C556.971 147.22 552.877 146.82 549.596 146.18C529.769 142.311 509.906 140.232 489.604 142.279C471.937 144.06 454.747 147.439 438.082 153.476C409.895 163.685 385.377 179.65 363.728 201.368ZM653.488 207.004C631.947 182.961 605.904 165.516 575.786 154.077C572.685 152.9 569.492 151.875 566.258 151.159C562.609 150.351 560.093 151.78 559.332 155.701C559.047 157.169 558.75 158.673 558.172 160.039C556.375 164.279 557.936 166.415 562.131 167.799C572.9 171.352 583.269 175.883 593.248 181.303C595.843 182.712 597.795 183.924 595.845 187.39C594.003 190.664 592.157 191.506 588.7 189.446C580.236 184.4 571.163 180.598 561.864 177.372C555.036 175.003 553.837 175.584 551.862 182.509C548.028 195.954 544.381 209.453 540.585 222.909C539.414 227.061 540.719 229.173 544.909 230.734C582.987 244.925 607.616 271.729 618.896 310.717C619.917 314.249 621.485 315.413 624.89 314.672C633.01 312.905 641.133 311.155 649.269 309.466C651.847 308.93 653.28 307.65 652.344 304.956C651.122 301.437 652.81 300.176 655.913 299.371C659.093 298.545 660.295 300.202 660.776 302.774C661.965 309.135 666.269 305.711 669.392 305.481C673.219 305.199 674.525 302.778 673.598 299.184C672.684 295.642 671.683 292.119 670.616 288.62C667.301 277.743 662.618 267.449 657.051 257.561C655.334 254.51 656.118 252.837 659.044 251.195C662.106 249.477 663.959 250.093 665.423 253.109C667.096 256.553 668.958 259.906 670.593 263.367C675.659 274.089 679.628 285.221 682.338 296.759C683.298 300.847 685.138 302.533 689.297 301.141C690.23 300.828 691.27 300.844 692.255 300.675C699.688 299.396 700.805 297.815 698.931 290.629C690.748 259.254 675.642 231.61 653.488 207.004ZM650.743 380.295C651.501 377.229 652.181 374.139 653.044 371.103C653.608 369.121 653.851 367.411 651.313 366.804C648.627 366.163 648.375 368.219 647.891 370.002C646.321 375.785 644.825 381.59 643.121 387.333C642.487 389.467 641.965 392.221 638.512 391.099C635.263 390.043 636.025 387.773 636.727 385.415C638.618 379.065 641.025 372.829 641.406 366.173C634.996 362.937 633.318 363.487 631.723 370.026C628.982 381.264 625.071 392.019 619.371 402.09C618.433 403.748 617.474 406.022 614.829 404.605C612.161 403.176 613.521 401.258 614.495 399.519C619.656 390.295 623.292 380.48 625.858 370.254C626.26 368.652 626.471 366.994 626.648 365.349C626.781 364.1 626.33 363.008 625.068 362.523C623.606 361.961 622.493 362.56 621.618 363.761C619.696 366.403 619.202 369.579 618.326 372.605C612.904 391.347 603.76 407.912 590.074 421.963C577.15 435.231 561.906 444.754 544.577 451.061C542.309 451.887 540.467 452.892 541.435 455.69C542.394 458.459 544.534 457.524 546.459 457.008C552.948 455.27 558.812 452.056 564.824 449.198C566.653 448.328 568.459 447.005 569.926 449.615C571.426 452.284 569.283 453.128 567.548 454.107C561.29 457.636 554.683 460.418 547.938 462.827C544.696 463.984 543.924 465.684 545.006 468.889C546.168 472.333 548.401 472.022 550.965 471.112C554.103 469.998 557.306 469.006 560.32 467.614C571.084 462.643 581.406 456.886 590.782 449.568C593.155 447.716 595.351 446.472 597.34 449.896C598.949 452.665 596.618 453.804 594.981 455.087C582.538 464.836 568.772 472.169 553.864 477.366C550.484 478.544 548.295 480.184 549.506 484.309C553.492 497.89 557.308 511.522 561.313 525.098C562.879 530.409 564.45 531.123 569.776 529.382C597.156 520.431 621.32 505.918 642.075 486.083C653.162 475.487 664.969 465.183 670.484 450.045C670.843 449.059 671.938 448.209 672.886 447.6C674.784 446.382 676.001 444.69 677.131 442.797C688.497 423.746 696.445 403.365 701.224 381.709C702.177 377.39 700.829 374.833 696.501 374.094C686.659 372.415 676.792 370.875 666.948 369.204C663.859 368.68 662.476 369.83 661.746 372.905C659.285 383.276 656.321 393.494 651.956 403.276C644.272 420.497 633.894 435.873 620.939 449.551C618.805 451.804 616.945 452.855 614.305 450.125C612.031 447.773 611.608 445.942 614.134 443.418C631.727 425.839 643.477 404.812 650.743 380.295ZM364.32 382.359C371.727 407.491 384.887 429.001 404.368 446.511C403.224 441.8 399.585 438.818 396.745 435.274C395.407 433.605 394.292 431.984 396.41 430.107C398.487 428.267 399.953 429.326 401.448 431.013C403.544 433.38 405.723 435.678 407.937 437.935C409.856 439.892 411.694 440.946 414.257 438.419C416.695 436.013 416.845 434.113 414.464 431.709C412.475 429.7 410.69 427.487 408.827 425.355C403.993 419.823 399.599 413.972 395.851 407.64C394.781 405.83 394.419 404.211 396.558 402.982C398.53 401.849 399.633 403.069 400.607 404.59C401.865 406.553 403.146 408.503 404.432 410.448C408.496 416.592 413.218 422.177 418.666 427.138C419.789 428.16 421.056 429.259 422.627 428.106C424.299 426.878 423.95 425.151 423.149 423.604C422.622 422.588 421.821 421.691 421.042 420.832C394.547 391.631 384.926 357.557 391.526 318.784C391.721 317.637 391.819 316.468 391.865 315.305C391.923 313.831 391.394 312.693 389.799 312.34C388.31 312.01 387.009 312.47 386.458 313.845C385.659 315.839 384.957 317.917 384.578 320.024C383.574 325.599 383.012 331.231 382.92 336.907C382.888 338.893 382.968 341.226 380.039 341.202C376.759 341.175 377.161 338.624 377.14 336.489C377.131 335.494 377.302 334.499 377.361 333.502C377.746 327.031 378.359 320.593 379.684 314.232C380.34 311.083 379.071 309.175 375.795 308.481C372.249 307.73 371.528 309.902 370.955 312.583C368.714 323.055 367.634 333.635 368.138 344.334C368.405 349.985 368.927 355.628 369.499 361.257C369.737 363.607 368.787 364.689 366.619 365.027C364.321 365.386 363.154 364.27 362.867 362.095C361.649 352.847 360.279 343.593 361.171 334.23C361.912 326.449 362.407 318.625 364.374 311.006C365.11 308.154 364.958 305.645 361.441 304.73C346.936 300.956 332.437 297.162 317.926 293.409C315.8 292.859 312.814 293.401 313.134 295.453C313.912 300.439 310.374 303.731 309.476 307.922C307.096 319.029 306.682 330.44 306.666 341.665C306.643 359.432 309.273 377.052 314.167 394.223C323.724 427.761 340.8 456.919 365.351 481.685C369.338 485.706 370.987 485.783 374.841 481.671C382.132 473.894 389.192 465.902 396.482 458.125C398.617 455.849 398.25 454.21 396.227 452.232C391.818 447.923 387.663 443.381 383.798 438.56C370.597 422.097 361.104 403.732 355.322 383.45C354.002 378.82 355.145 377.298 359.675 376.757C363.588 376.29 363.015 379.657 364.32 382.359ZM562.417 324.197C556.12 289.973 513.278 271.213 484.753 285.327C508.406 280.661 524.157 282.168 530.896 290.075C527.894 292.422 523.742 293.045 521.763 297.066C519.284 302.104 514.868 303.927 508.87 303.372C502.585 302.791 496.589 300.395 490.105 301.049C479.033 302.164 468.966 304.538 464.689 316.641C464.143 318.186 463.311 319.758 462.215 320.954C459.388 324.038 456.336 326.911 451.516 324.902C451.581 318.359 454.229 312.841 457.064 307.348C453.824 310.696 451.815 314.695 450.181 318.833C437.218 351.659 456.551 389.046 489.705 396.587C518.612 403.163 548.137 389.395 559.431 361.922C564.368 349.914 564.246 337.577 562.417 324.197ZM324.134 292.288C335.264 295.118 346.414 297.874 357.518 300.803C365.94 303.024 365.913 303.121 368.681 295.183C369.01 294.24 369.344 293.297 369.717 292.371C370.444 290.566 371.626 289.747 373.638 290.464C375.775 291.226 376.466 292.535 375.698 294.721C375.092 296.445 374.752 298.262 374.165 299.994C373.26 302.666 373.075 304.746 376.611 305.687C379.945 306.575 381.802 306.058 382.914 302.398C385.337 294.423 388.6 286.753 392.637 279.437C393.617 277.661 394.665 275.598 397.191 276.913C399.778 278.259 398.553 280.228 397.605 282.032C394.116 288.673 390.859 295.409 388.926 302.706C388.267 305.194 387.375 307.919 390.655 309.039C394.2 310.249 394.249 306.868 394.906 304.929C399.605 291.07 406.27 278.287 415.524 266.929C417.724 264.228 417.907 262.116 415.224 259.673C404.021 249.473 392.823 239.265 381.783 228.89C378.589 225.888 376.555 226.744 374.117 229.704C368.384 236.663 363.087 243.929 358.489 251.669C356.608 254.835 354.75 254.66 351.975 253.039C349.029 251.319 348.432 249.525 350.401 246.613C354.972 239.852 359.384 232.991 364.517 226.62C371.248 218.265 371.059 218.376 362.93 211.158C359.177 207.827 356.723 208.571 353.877 212.11C348.444 218.867 343.252 225.79 338.547 233.069C328.455 248.687 320.716 265.4 315.259 283.184C313.965 287.4 315.158 289.977 319.513 290.996C320.809 291.299 322.085 291.69 324.134 292.288ZM235.704 301.376C227.744 299.687 224.348 306.145 219.63 310.312C217.372 312.306 217.315 313.907 219.543 316.039C224.595 320.873 229.241 326.151 234.488 330.751C237.814 333.668 242.097 335.602 246.677 335.408C264.158 334.669 281.641 335.049 299.117 335.286C303.163 335.341 304.535 334.069 304.605 330.313C304.749 322.499 305.82 314.761 307.204 307.092C307.751 304.062 306.638 302.526 304.042 301.946C301.96 301.481 299.756 301.423 297.606 301.418C277.289 301.377 256.971 301.385 235.704 301.376ZM742.777 298.566C748.774 298.576 754.771 298.593 760.768 298.595C779.579 298.603 779.63 298.65 792.639 285.114C795.871 281.75 800.053 279.142 802.181 274.734C799.89 272.847 797.632 273.42 795.536 273.417C765.885 273.386 736.234 273.405 706.582 273.413C704.583 273.413 702.583 273.386 700.586 273.446C698.016 273.523 696.992 274.6 697.838 277.311C699.326 282.075 700.77 286.866 701.922 291.72C703.08 296.6 706.005 298.544 710.889 298.499C721.204 298.403 731.521 298.524 742.777 298.566ZM647.385 316.58C649.223 317.477 649.06 319.261 649.324 320.88C651.372 333.46 651.487 346.054 649.661 358.668C649.346 360.844 648.777 363.266 651.997 363.659C655.166 364.046 654.486 361.229 655.091 359.536C655.312 358.915 655.45 358.247 655.512 357.589C656.839 343.464 656.658 329.374 654.621 315.313C654.232 312.626 653.255 311.528 650.336 312.178C641.899 314.054 633.425 315.773 624.94 317.425C621.786 318.039 620.713 319.691 621.49 322.727C622.862 328.083 621.691 333.705 623.214 339.065C623.618 340.488 622.997 341.685 621.236 341.777C619.269 340.71 620.052 338.915 619.927 337.33C619.55 332.524 619.116 327.722 618.631 322.925C618.437 321.004 617.954 319.119 615.343 319.601C609.948 320.598 604.557 321.627 599.186 322.744C596.995 323.2 596.068 324.885 595.373 326.929C594.225 330.307 591.914 330.778 590.077 327.781C588.6 325.371 586.977 324.975 584.72 325.702C582.4 326.449 582.106 328.361 582.159 330.537C582.291 336.016 582.399 341.501 582.294 346.979C582.228 350.394 583.584 352.266 586.98 352.856C593.209 353.938 599.42 355.128 605.631 356.318C609.245 357.011 611.407 355.837 611.936 351.973C612.958 344.512 613.049 337.069 612.024 329.602C611.753 327.629 610.108 324.527 613.029 324.071C616.38 323.547 615.591 327.183 615.908 329.246C616.259 331.537 616.242 333.891 616.3 336.219C616.44 341.872 616.708 347.525 616.047 353.17C615.342 359.185 620.286 358.542 623.698 359.371C627.499 360.296 628.148 357.385 628.462 354.618C628.874 350.992 629.188 347.347 629.342 343.701C629.426 341.692 629.608 339.88 632.042 339.729C634.946 339.549 635.186 341.751 635.091 343.815C634.898 347.966 634.672 352.128 634.169 356.249C633.692 360.166 635.931 360.968 639.072 361.548C642.739 362.225 642.867 359.791 643.134 357.457C644.464 345.837 644.499 334.215 642.87 322.619C642.424 319.437 641.909 316.393 647.385 316.58ZM677.194 368.197C683.58 369.294 689.954 370.462 696.355 371.466C701.499 372.272 703.151 371.109 703.698 366.037C704.43 359.259 705.164 352.46 705.404 345.653C705.855 332.819 704.685 320.066 702.563 307.406C702.096 304.62 700.342 302.786 697.469 302.875C694.669 302.962 691.844 303.161 689.093 304.048C686.121 305.006 684.894 306.413 685.331 309.857C686.418 318.419 687.894 326.956 687.957 335.632C687.98 338.852 687.995 341.48 683.397 341.472C679.012 341.463 678.792 339.172 678.58 335.801C678.099 328.175 677.285 320.566 676.474 312.964C676.037 308.86 674.281 306.33 669.553 308.094C668.472 308.498 667.295 308.685 666.144 308.85C663.259 309.264 662.389 310.595 662.867 313.657C664.901 326.661 666.339 339.705 664.498 352.906C663.93 356.976 662.459 362.133 664.256 365.007C666.373 368.391 672.259 366.805 677.194 368.197ZM125.271 523.38C136.826 518.911 149.11 522.027 153.009 532.434C156.071 540.607 160.865 541.38 167.727 540.663C169.54 540.473 171.389 540.567 173.219 540.621C177.161 540.736 178.015 538.677 177.432 535.171C173.94 514.147 155.283 499.148 132.765 499.348C113.201 499.521 94.7774 516.056 91.7807 535.918C91.2704 539.3 92.3573 540.622 95.5863 540.616C100.249 540.606 104.914 540.527 109.573 540.649C112.245 540.718 113.382 539.487 114.031 537.012C115.582 531.09 119.093 526.599 125.271 523.38ZM162.895 575.419C170.579 568.723 175.282 560.277 177.403 550.381C178.64 544.612 177.614 543.368 172.023 543.333C169.025 543.314 166.003 543.576 163.037 543.271C158.531 542.807 156.292 544.185 154.993 548.961C152.539 557.983 144.574 563.629 135.358 564.094C127.197 564.506 117.304 559.492 115.576 551.656C113.659 542.957 108.616 542.756 102.046 543.307C100.393 543.445 98.7172 543.299 97.0523 543.312C91.3548 543.357 90.8076 544.134 91.863 549.841C97.9954 583 136.578 597.121 162.895 575.419ZM435.707 406.066C430.821 410.539 430.703 410.634 426.591 405.531C417.834 394.666 411.279 382.646 407.49 369.119C406.261 364.733 406.634 362.118 411.752 361.382C415.407 360.856 416.73 358.854 416.317 354.698C415.33 344.776 414.983 334.748 416.908 324.872C417.677 320.928 416.497 318.842 412.685 317.924C408.645 316.951 404.608 315.938 400.625 314.757C396.793 313.62 394.859 314.541 394.068 318.815C391.309 333.73 391.405 348.591 394.425 363.402C398.892 385.315 408.891 404.334 424.651 420.299C427.05 422.729 428.928 422.975 431.196 420.279C434.085 416.843 437.136 413.544 440.101 410.172C441.373 408.726 443.5 407.332 441.55 405.153C439.802 403.199 437.93 404.369 435.707 406.066ZM577.205 429.706C584.308 423.877 590.759 417.429 596.363 410.115C606.112 397.391 613.172 383.402 616.98 367.785C618.035 363.457 617.269 360.805 612.297 359.952C606.113 358.89 599.987 357.563 593.045 357.302C595.002 359.83 594.397 361.977 593.63 364.25C591.927 369.296 590.416 374.403 588.127 379.238C586.363 382.961 586.784 386.116 590.979 387.838C595.261 389.595 595.235 392.045 592.911 395.604C585.263 407.321 575.943 417.377 564.357 425.273C558.886 429.002 558.861 428.986 554.643 423.682C552.685 421.219 550.454 419.935 547.31 421.598C543.962 423.369 545.639 425.826 546.449 428.062C548.655 434.151 548.669 434.069 542.595 436.684C540.551 437.564 537.46 437.523 537.54 441.585C544.004 441.834 548.946 436.405 556.218 436.665C552.613 444.217 543.87 442.706 540.107 448.18C553.933 445.39 565.768 438.733 577.205 429.706ZM47.4146 306.915C48.5134 308.542 49.9404 309.386 52.0082 309.376C63.5821 309.32 75.1564 309.349 87.8261 309.349C83.6708 304.829 81.6649 300.245 74.7572 303.645C68.4469 306.751 61.1362 303.169 57.6204 297.164C54.3009 291.493 55.1743 283.809 59.674 279.099C64.6707 273.868 71.5772 272.887 77.9271 276.506C83.8947 279.907 87.6514 287.209 84.7847 293.571C81.8899 299.994 85.4987 302.676 89.071 306.16C91.4067 308.438 92.9953 307.734 94.7237 305.402C100.894 297.077 101.237 284.286 95.4338 274.655C89.8472 265.383 77.4762 259 67.9966 260.499C44.0167 264.289 34.2901 289.194 47.4146 306.915ZM179.883 311.463C176.06 311.602 172.236 311.882 168.414 311.858C146.284 311.722 124.154 311.495 102.024 311.365C100.12 311.354 98.0663 310.766 95.7929 312.357C102.256 319.317 107.313 326.65 118.883 326.255C143.488 325.416 168.141 325.983 192.774 325.98C200.193 325.979 208.64 320.018 211.757 312.158C201.369 310.631 191.071 311.682 179.883 311.463ZM537.089 242.027C538.164 243.782 540.122 243.974 541.795 244.591C552.035 248.365 561.356 253.723 569.99 260.391C573.209 262.877 573.572 264.92 570.776 268.098C566.852 272.559 567.17 274.128 571.617 278.511C573.746 278.205 574.972 276.474 576.487 275.242C581.683 271.017 581.603 271.031 585.748 276.126C594.705 287.137 600.72 299.66 605.06 313.083C605.562 314.635 605.293 316.886 608.039 317.362C609.495 315.397 608.869 313.282 608.444 311.226C608.163 309.864 607.789 308.362 609.493 307.883C611.231 307.394 611.532 309.112 612.189 310.218C613.333 312.146 612.456 315.337 617.283 316.6C613.142 296.571 604.554 279.97 591.746 265.561C576.034 247.885 550.592 232.264 541.568 234.279C542.229 236.86 544.56 237.191 546.502 237.831C549.521 238.826 552.454 239.961 555.177 241.608C556.446 242.376 558.177 243.097 557.281 244.952C556.377 246.823 554.786 245.935 553.392 245.328C549.888 243.802 546.411 242.205 542.849 240.827C540.91 240.078 538.746 239.005 537.089 242.027ZM148.537 555.003C154.869 546.676 155.141 538.782 149.354 531.316C144.144 524.597 135.32 522.258 127.44 525.508C119.456 528.801 114.954 536.626 116.351 545.683C117.413 552.568 121.456 557.367 127.989 560.036C135.752 563.207 142.22 560.877 148.537 555.003ZM429.807 330.486C429.982 329.167 430.053 327.825 430.352 326.535C431.151 323.081 428.814 322.052 426.289 321.478C423.068 320.745 422.725 323.342 422.58 325.459C422.082 332.741 420.4 339.996 421.461 347.317C422.095 351.69 421.496 356.886 427.42 358.709C428.202 358.95 428.772 360.543 429.064 361.612C432.139 372.871 437.716 382.804 444.923 391.889C445.957 393.192 447.165 394.407 446.375 396.331C445.756 397.84 444.648 399.831 447.063 400.437C449.35 401.01 450.602 398.947 451.461 397.132C452.219 395.531 451.215 393.372 452.839 391.991C455.643 389.608 454.553 387.115 452.727 385.035C450.389 382.37 448.52 379.373 447.095 376.269C443.167 367.712 437.978 359.234 439.24 349.395C440.111 342.596 439.147 335.744 440.607 329.029C440.896 327.7 440.764 326.145 439.13 325.758C436.956 325.245 436.924 327.111 436.466 328.516C434.721 333.859 434.986 339.339 435.329 344.814C435.473 347.109 435.759 349.313 432.48 349.405C429.468 349.489 429.516 347.335 429.531 345.29C429.566 340.637 429.66 335.983 429.807 330.486ZM356.156 598.779C362.832 591.716 370.358 585.455 376.444 578.121C375.486 576.294 374.271 576.296 373.121 576.289C365.802 576.243 358.482 576.262 351.164 576.187C348.732 576.162 347.188 577.556 345.636 579.121C339.545 585.262 333.403 591.353 327.336 597.518C326.396 598.474 324.694 599.177 325.57 601.535C334.079 601.535 342.695 601.546 351.31 601.525C353.097 601.521 354.431 600.515 356.156 598.779ZM450.429 287.045C455.406 292.966 457.023 293.115 463.292 289.121C479.181 278.999 495.836 271.821 515.401 275.692C517.738 276.155 521.706 277.231 522.209 273.865C522.704 270.56 518.517 271.662 516.472 270.668C516.324 270.597 516.153 270.576 515.994 270.529C514.275 270.014 512.833 269.213 513.22 267.077C513.602 264.967 515.219 264.632 517.012 264.747C519.357 264.898 521.7 265.097 524.436 265.306C523.47 262.822 522.033 261.721 521.582 259.797C520.783 256.397 516.768 255.519 514.829 258.424C512.954 261.232 510.672 261.293 507.978 261.186C497.173 260.758 486.819 262.766 476.923 267.079C474.689 268.053 473.019 267.755 470.997 266.265C468.267 264.253 464.189 265.932 464.832 268.689C465.792 272.799 462.96 273.743 460.822 275.725C457.164 279.116 451.796 280.849 450.429 287.045ZM559.425 300.05C565.522 307.276 567.435 316.899 572.875 324.88C575.163 322.931 574.702 321.19 574.165 319.422C572.763 314.8 570.959 310.351 568.583 306.138C565.625 300.893 561.862 296.257 557.866 291.786C556.835 290.634 555.97 289.36 557.389 287.857C559.022 286.126 560.362 287.145 561.656 288.329C562.265 288.887 562.84 289.492 563.373 290.123C569.849 297.795 574.999 306.224 578.341 315.749C579.139 318.024 579.329 320.876 582.077 322.319C583.41 320.025 582.905 318.019 582.258 316.207C579.11 307.387 575.205 298.9 568.93 291.843C566.123 288.687 564.195 285.908 567.494 282.263C566.016 279.973 564.113 278.562 561.891 279.403C558.804 280.572 556.825 279.164 554.686 277.493C548.739 272.843 541.964 269.634 535.154 266.53C533.347 265.706 531.316 264.523 529.134 265.967C529.569 268.332 531.581 268.172 532.964 268.816C536.279 270.358 539.676 271.727 542.965 273.321C544.743 274.183 546.849 275.177 545.346 277.809C544.007 280.153 542.21 279.588 540.221 278.555C537.275 277.027 534.27 275.59 531.195 274.35C529.802 273.788 527.855 272.445 526.787 274.571C525.641 276.851 527.713 277.828 529.315 278.65C534.347 281.23 539.507 283.57 544.469 286.273C550.349 289.475 555.697 293.374 559.425 300.05ZM418.903 272.564C419.613 271.072 421.938 270.245 420.926 268.069C419.43 267.081 418.598 268.025 417.857 268.908C408.22 280.391 401.219 293.29 396.98 307.69C396.273 310.094 397.35 311.077 399.436 311.601C404.588 312.895 409.733 314.218 414.885 315.513C417.735 316.23 419.64 315.461 420.606 312.399C421.901 308.294 423.427 304.255 425.017 300.252C426.084 297.564 425.164 295.932 422.915 294.409C416.423 290.014 416.45 289.949 421.051 283.265C422.841 280.665 424.741 278.139 426.497 275.516C427.187 274.486 428.287 273.389 426.7 271.478C418.736 276.119 416.677 286.163 409.328 291.348C409.885 283.834 414.913 278.855 418.903 272.564ZM70.8908 545.362C63.6559 548.778 59.61 555.497 53.4792 561.218C66.7912 561.218 79.0328 561.218 91.5634 561.218C90.4723 555.573 89.5056 550.57 88.5381 545.567C88.2835 544.251 87.4404 543.44 86.1506 543.456C81.2607 543.513 76.192 542.224 70.8908 545.362ZM518.438 184.909C499.749 184.589 481.26 185.326 463.112 190.883C440.93 197.676 421.077 208.305 403.916 223.915C402.691 225.029 401.06 226.052 401.321 229.064C404.532 226.624 407.205 224.708 409.753 222.638C431.417 205.041 455.924 193.922 483.542 189.416C501.871 186.426 519.995 187.444 538.138 190.559C539.996 190.878 541.954 191.541 544.344 189.482C535.783 186.725 527.686 185.395 518.438 184.909ZM59.543 284.249C57.1087 291.166 58.9243 296.862 64.6144 300.161C69.2145 302.828 73.7708 302.255 76.9393 298.61C75.6518 294.971 70.7232 293.819 70.1644 288.767C73.2949 289.705 74.5596 292 76.3997 293.497C77.6266 294.494 78.6294 296.346 80.5868 295.272C82.181 294.397 82.4554 292.646 82.6316 290.955C83.209 285.415 80.1267 280.342 74.9337 278.312C69.0601 276.016 64.4079 277.653 59.543 284.249ZM433.388 300.459C427.219 302.902 427.728 309.223 425.594 313.992C424.88 315.587 424.822 317.424 426.765 318.29C428.686 319.145 430.767 319.262 432.156 317.282C433.1 315.937 433.795 314.395 434.457 312.878C435.247 311.066 435.619 308.678 438.416 309.508C441.273 310.355 440.86 312.607 440.301 314.844C439.793 316.881 438.225 319.024 440.453 321.106C442.674 319.894 443.199 317.78 443.779 316.019C445.572 310.571 448.39 305.762 451.668 301.104C454.64 296.882 453.817 294.162 449.073 290.716C444.83 287.634 443.677 291.877 441.739 293.938C440.383 295.38 439.358 297.14 438.226 298.786C437.208 300.266 436.051 301.339 433.388 300.459ZM574.77 374.211C566.052 394.196 549.829 406.038 530.387 413.79C531.032 415.534 531.713 415.786 532.348 415.6C535.768 414.601 538.881 413.229 542.562 415.854C544.054 416.918 547.681 415.229 547.297 412.373C546.856 409.087 548.619 407.809 550.697 406.447C560.031 400.333 567.413 392.337 573.438 383.023C574.166 381.897 574.806 380.356 576.289 380.566C581.045 381.237 582.092 377.619 583.623 374.546C586.426 368.917 587.632 362.759 589.669 356.884C582.227 354.249 582.17 354.348 579.954 361.037C578.549 365.277 577.499 369.673 574.77 374.211ZM648.414 395.815C641.371 413.493 631.392 429.314 618.424 443.246C617.744 443.977 617.045 444.695 616.424 445.473C615.849 446.193 615.729 447.011 616.467 447.705C617.196 448.39 618.005 448.236 618.692 447.629C619.564 446.859 620.419 446.059 621.202 445.199C640.475 424.047 653.232 399.534 659.194 371.517C659.438 370.37 659.896 369.213 657.417 368.127C653.767 376.911 652.674 386.531 648.414 395.815ZM381.292 425.15C371.824 411.405 365.589 396.039 359.647 380.525C355.797 393.646 389.526 449.666 402.588 451.145C395.302 442.168 387.64 434.627 381.292 425.15ZM433.8 476.651C443.56 481.489 453.259 486.504 464.038 488.373C464.366 487.561 464.695 486.749 465.023 485.938C454.446 482.049 443.729 478.499 433.875 473.007C423.882 467.438 414.759 460.555 405.037 454.491C412.684 464.054 422.789 470.344 433.8 476.651ZM68.8099 318.636C75.5559 318.816 81.75 317.407 86.7119 311.842C75.6149 311.842 64.518 311.842 52.7056 311.842C57.2758 316.478 62.6273 317.514 68.8099 318.636ZM510.396 408.137C495.46 410.135 482.132 403.752 467.131 398.844C478.937 411.243 512.947 414.942 523.039 408.281C522.499 405.832 520.802 406.442 519.148 406.761C516.543 407.263 513.922 407.682 510.396 408.137ZM660.286 312.884C659.792 311.813 659.299 310.506 657.798 311.192C656.268 311.893 656.608 313.287 656.877 314.665C659.873 330.005 659.545 345.416 657.778 360.854C657.584 362.551 656.571 364.629 660.375 365.031C663.081 347.839 662.656 330.723 660.286 312.884ZM565.904 370.448C565.116 374.511 561.572 377.642 561.306 382.1C562.282 382.1 562.704 382.231 562.902 382.076C563.546 381.572 564.208 381.038 564.684 380.385C569.509 373.767 573.279 366.634 575.184 358.605C575.595 356.871 576.669 354.531 574.299 353.918C571.69 353.242 571.199 355.855 570.837 357.792C570.035 362.081 568.76 366.159 565.904 370.448ZM573.23 338.57C573.053 341.393 572.897 344.217 572.69 347.037C572.578 348.563 573.009 349.817 574.662 349.934C576.148 350.039 576.478 348.721 576.685 347.547C577.526 342.768 578.052 337.959 576.746 333.197C576.264 331.439 576.431 329.025 573.245 328.619C571.541 331.612 573.808 334.713 573.23 338.57ZM548.517 397.153C548.587 396.121 547.717 395.979 547.205 396.229C540.832 399.332 533.834 401.14 528.032 405.413C527.448 405.844 527.523 406.578 528.02 407.17C533.986 406.871 538.206 404.873 548.517 397.153ZM861.434 303.482C862.252 301.973 861.911 300.483 860.195 300.596C856.573 300.835 854.054 298.75 851.2 296.711C849.412 299.83 850.323 302.237 852.384 304.112C855.15 306.629 858.146 306.253 861.434 303.482ZM784.853 395.452C784.823 399.547 786.81 402.166 790.881 402.47C793.683 402.679 795.81 401.26 796.346 397.714C792.489 397.578 789.195 396.869 786.619 394.234C786.142 393.746 785.393 394.222 784.853 395.452ZM870.487 570.52C870.202 570.131 869.688 569.39 869.665 569.405C866.492 571.467 862.799 572.47 859.253 573.752C860.465 577.383 862.853 578.01 865.424 577.52C868.755 576.886 870.459 574.558 870.487 570.52ZM184.132 386.318C183.559 388.084 183.762 390.627 185.88 389.166C188.829 387.131 192.269 387.133 195.339 385.774C191.976 380.04 188.783 380.111 184.132 386.318ZM353.846 507.239C351.347 510.29 347.392 510.508 343.736 511.919C346.047 515.22 348.585 516.888 351.791 514.515C354.075 512.824 357.298 510.883 353.846 507.239ZM301.316 148.271C303.357 148.163 304.973 146.074 307.424 147.429C309.796 148.741 308.361 151.79 310.817 153.581C312.495 149.418 311.109 146.591 307.927 144.986C304.939 143.478 302.112 144.17 301.316 148.271ZM347.225 507.748C349.471 507.272 351.056 506.03 351.966 503.665C349.322 501.386 346.817 502.518 344.904 504.286C342.666 506.354 343.547 507.745 347.225 507.748ZM854.372 293.844C856.061 298.328 858.058 299.132 862.1 296.786C860.574 293.678 858.149 292.685 854.372 293.844ZM788.758 391.366C790.606 394.559 792.937 395.537 796.476 393.006C794.215 390.336 792.322 387.92 788.758 391.366ZM192.512 389.605C190.429 390.157 188.392 390.763 187.844 393.406C190.196 395.218 192.121 394.184 193.884 392.889C195.928 391.386 195.569 390.212 192.512 389.605ZM862.848 565.372C861.236 566.112 859.254 566.543 859.737 569.219C861.764 570.148 863.645 569.947 865.155 568.291C867.302 565.936 866.107 565.171 862.848 565.372ZM658.371 306.786C658.835 304.844 658.564 303.276 656.063 302.423C655.142 304.839 654.132 306.908 658.371 306.786Z" fill="white"/>
<path d="M1024 57.5833C1019.85 58.7349 1016.6 61.5706 1012.51 62.6611C993.927 67.6177 975.846 56.2563 972.593 37.3073C971.327 29.9276 971.327 29.9276 963.848 30.0282C911.479 30.7328 864.622 64.3859 847.484 113.416C846.041 117.543 846.501 118.993 851.102 120.152C872.364 125.508 887.058 146.352 885.146 167.702C883.078 190.792 865.331 208.564 842.669 210.239C820.24 211.896 799.812 197.259 794.726 175.44C791.685 162.397 793.675 149.981 801.146 138.644C805.041 132.735 803.33 127.603 796.543 124.649C791.93 122.641 787.232 121.681 782.104 121.807C769.781 122.111 757.445 122.004 745.115 121.945C740.849 121.925 737.419 123.305 734.489 126.473C730.305 130.995 725.025 134.751 721.785 139.835C718.091 145.633 715.478 149.195 707.606 145.833C703.29 143.99 697.435 145.902 692.277 145.856C670.955 145.668 649.628 146.511 628.309 145.522C622.991 145.276 614.48 152.129 612.936 158.021C612.291 160.48 611.587 162.578 608.627 162.609C606.764 162.629 605.425 161.612 604.957 159.8C604.419 157.716 605.423 155.945 607.221 155.289C612.695 153.294 616.171 148.998 619.543 144.727C621.25 142.566 622.641 141.958 625.366 142.388C628.95 142.953 632.671 142.711 636.333 142.714C659.329 142.734 682.326 142.679 705.322 142.762C710.939 142.782 715.787 141.012 719.71 137.136C725.38 131.534 731.733 126.547 736.224 119.85C737.808 117.487 739.961 118.383 741.543 118.492C743.348 116.854 741.855 113.089 745.534 113.87C748.151 114.426 748.061 116.372 746.811 119.175C750.219 117.702 752.989 107.38 755.315 118.611C758.609 118.246 756.083 114.827 758.202 113.989C762.161 114.628 762.161 114.628 762.401 118.652C765.349 118.449 763.102 112.236 767.682 114.06C769.863 114.928 769.703 116.714 769.128 119.004C777.987 117.927 786.324 120.385 794.458 117.329C796.946 116.394 798.875 117.654 799.213 120.238C799.781 124.593 803.563 126.331 805.975 129.171C807.269 130.693 808.617 129.918 809.902 128.91C818.584 122.099 828.373 118.429 839.487 118.649C843.12 118.721 843.619 115.933 844.522 113.439C856.734 79.6979 878.834 54.7968 911.283 39.3638C929.144 30.8693 948.082 26.8092 967.888 27.4739C971.85 27.6069 972.582 25.2806 973.529 22.5309C977.411 11.2519 985.114 3.88172 996.725 1.24613C1006.27 -0.919902 1015.23 1.25267 1023.67 6.88996C1024 8.06667 1024 9.13335 1023.71 10.4228C1021.81 9.4876 1020.27 8.16954 1018.55 7.19788C1008.2 1.3765 997.841 1.54654 987.881 7.94886C978.574 13.932 973.99 23.0706 974.685 33.7941C975.447 45.5522 981.635 54.5832 992.989 58.9874C1004.42 63.4227 1014.85 61.1628 1024 53C1024 54.3889 1024 55.7778 1024 57.5833ZM836.162 143.37C845.173 142.096 852.296 145.451 857.166 152.875C861.966 160.191 861.866 168.082 857.418 175.552C851.624 185.281 838.908 188.509 828.952 183.139C818.926 177.732 815.148 165.319 820.222 154.637C821.092 152.806 823.246 151.034 821.298 148.776C817.191 144.018 812.663 139.689 807.949 135.653C791.974 149.362 792.561 178.491 808.753 194.869C826.537 212.857 855.311 211.661 872.195 192.231C888.383 173.602 885.114 145.174 865.044 129.873C845.267 114.795 818.559 121.852 809.633 134.784C812.365 136.943 815.788 138.95 818.279 141.778C822.186 146.214 825.892 148.985 831.548 144.628C832.52 143.88 834.065 143.876 836.162 143.37ZM855.298 173.659C859.765 164.425 857.832 154.944 850.383 149.553C843.289 144.42 833.709 144.758 827.702 150.738C831.429 154.101 833.84 158.926 839.014 160.599C841.209 161.309 842.665 162.304 842.639 164.627C842.618 166.477 841.511 167.819 839.625 168.061C836.95 168.404 835.728 166.721 835.113 164.397C834.943 163.755 834.826 163.08 834.538 162.493C832.628 158.6 826.142 153.095 824.439 153.874C822.131 154.931 819.857 163.167 820.792 167.299C822.559 175.11 827.1 180.641 834.985 182.415C843.257 184.275 850.028 181.326 855.298 173.659Z" fill="white"/>
<path d="M0 582.438C2.40397 582.491 4.75555 583.076 6.24556 585.391C5.25887 588.069 2.58727 587.826 0.329853 588.894C5.96046e-08 586.958 0 584.917 0 582.438Z" fill="white"/>
<path d="M413 123.387C405.5 123.368 398.494 123.168 391.503 123.401C387.317 123.54 384.289 122.102 381.41 119.101C373.914 111.285 366.079 103.796 358.503 96.0544C356.005 93.5018 353.307 92.3109 349.675 92.325C324.509 92.4232 299.343 92.3674 274.177 92.3451C271.656 92.3429 269.233 92.4206 267.042 94.0221C265.229 95.3469 263.25 95.3418 261.655 93.5412C260.393 92.1154 260.375 90.4397 261.5 88.9558C262.927 87.0727 265.091 86.6875 266.817 88.0224C269.489 90.0896 272.425 89.8493 275.389 89.8485C300.222 89.842 325.056 89.8912 349.887 89.7124C354.389 89.6801 357.74 90.9393 360.881 94.2547C368.329 102.116 376.194 109.58 383.753 117.339C386.012 119.657 388.389 120.685 391.664 120.673C421.163 120.568 450.662 120.61 480.162 120.585C482.952 120.582 485.74 120.879 488.178 118.718C489.947 117.149 491.982 117.855 493.507 119.507C494.781 120.887 494.953 122.554 493.847 124.086C492.521 125.922 490.596 126.661 488.599 125.419C484.643 122.957 480.269 123.371 475.999 123.359C455.166 123.305 434.333 123.367 413 123.387Z" fill="white"/>
<path d="M42.919 64.6026C40.3915 59.6569 41.0589 58.1449 45.9862 58.4453C50.9546 58.7483 56.2541 56.0057 60.9006 59.8556C61.5681 60.4086 61.6157 59.5777 61.8204 59.2182C62.5345 57.9643 63.601 57.5887 64.6956 58.5108C66.0033 59.6126 65.7599 61.2031 65.4797 62.6982C65.2328 64.0153 64.4009 65.0545 63.0861 64.6008C59.3401 63.3082 55.3264 65.6242 51.3663 63.3933C50.5519 62.9345 45.9223 63.6691 42.919 64.6026Z" fill="white"/>
<path d="M233.512 144.861C232.035 146.619 230.519 147.642 228.778 145.874C227.859 144.942 227.894 143.53 228.958 142.798C231.154 141.286 232.582 142.544 233.512 144.861Z" fill="white"/>
<path d="M226.013 143.566C226.367 146.518 224.367 146.89 222.612 146.559C221.067 146.269 220.836 144.598 221.613 143.288C222.921 141.081 224.405 142.44 226.013 143.566Z" fill="white"/>
<path d="M236.139 145.532C237.349 141.341 237.349 141.341 240.952 144.517C239.808 146.428 238.48 147.463 236.139 145.532Z" fill="white"/>
<path d="M219.188 144.209C218.555 146.398 216.906 147.016 215.361 146.242C213.713 145.416 214.229 143.82 215.205 142.482C216.869 142.001 218.031 142.796 219.188 144.209Z" fill="white"/>
<path d="M590.867 581.733C589.336 580.022 589.211 578.48 590.588 577.059C591.721 575.89 593.057 576.044 594.676 576.227C598.962 576.711 603.267 576.878 607.632 576.32C610.994 575.89 614.421 577.108 617.943 576.259C619.216 575.952 620.445 577.78 620.371 579.482C620.293 581.26 619.081 582.378 617.444 582.241C608.684 581.503 599.92 582.088 590.867 581.733Z" fill="white"/>
<path d="M18.0798 584.542C17.607 588.285 14.4501 589.428 12.2332 588.488C9.45943 587.313 11.1857 584.372 11.6226 582.167C14.4286 581.777 16.1453 583.019 18.0798 584.542Z" fill="white"/>
<path d="M25.588 588.761C22.479 586.872 23.8019 584.576 24.4032 582.14C27.3798 582.101 29.5719 583.139 31.2826 585.352C30.1635 587.74 27.9165 587.999 25.588 588.761Z" fill="white"/>
<path d="M910 372.594C934.325 372.595 958.15 372.594 981.974 372.602C984.969 372.604 987.909 372.781 990.41 370.458C991.962 369.018 993.889 369.356 995.301 370.947C996.678 372.498 996.732 374.333 995.504 375.986C994.203 377.738 992.17 377.971 990.595 376.839C987.733 374.782 984.598 375.106 981.468 375.103C944.803 375.065 908.139 375.059 871.475 375.003C869.446 375 867.209 375.6 865.5 372.596C880.167 372.596 894.834 372.596 910 372.594Z" fill="white"/>
<path d="M243.971 250.853C242.034 246.822 242.557 244.588 247.441 244.736C253.081 244.906 258.737 244.795 264.376 244.561C267.136 244.447 267.895 245.657 267.855 248.103C267.814 250.6 266.879 251.593 264.196 251.471C257.58 251.169 250.95 251.181 243.971 250.853Z" fill="white"/>
<path d="M994.999 44.2048C988.779 38.4235 987.324 32.705 990.146 26.1415C992.682 20.2451 998.392 16.7026 1004.92 17.3207C1010.8 17.8788 1015.45 20.6668 1017.46 26.4335C1019.41 32.056 1019.13 37.7087 1014.75 42.2374C1010.7 46.4257 1005.71 48.355 999.827 46.413C998.273 45.8995 996.815 45.0915 994.999 44.2048ZM991.665 34.6858C992.198 35.8989 992.626 37.1727 993.283 38.3144C995.891 42.846 1001.9 45.4991 1006.42 44.1946C1012.12 42.5483 1015.89 37.8047 1015.94 32.2268C1015.99 25.2822 1010.62 19.9394 1003.63 19.9796C996.326 20.0215 991.396 25.6831 991.665 34.6858Z" fill="white"/>
<path d="M459.764 516.407C445.254 512.685 431.874 507.234 419.065 500.312C416.248 498.79 414.432 497.479 416.446 493.803C418.486 490.078 420.517 490.517 423.669 492.259C447.864 505.637 473.839 512.613 501.471 513.215C505.031 513.293 507.204 513.697 507.119 517.997C507.037 522.097 504.782 522.498 501.567 522.383C487.554 521.882 473.712 520.246 459.764 516.407Z" fill="white"/>
<path d="M455.909 204.805C463.522 202.193 470.812 199.874 478.4 198.686C480.504 198.356 482.907 197.73 483.415 201.005C483.87 203.944 481.958 204.695 479.642 205.181C458.137 209.691 438.588 218.45 421.279 232.074C419.348 233.594 417.419 234.87 415.304 232.214C413.118 229.471 415.064 228.024 416.938 226.521C428.599 217.17 441.629 210.261 455.909 204.805Z" fill="white"/>
<path d="M460.968 225.965C456.239 228.127 451.849 230.107 447.503 232.179C445.548 233.111 443.489 234.721 441.994 231.849C440.478 228.938 443.208 228.071 444.941 227.077C455.713 220.9 467.462 217.375 479.446 214.462C486.762 212.685 494.231 212.397 501.672 211.832C503.701 211.678 506.519 211.095 506.714 214.277C506.907 217.412 504.215 217.264 502.064 217.311C487.954 217.621 474.452 220.815 460.968 225.965Z" fill="white"/>
<path d="M515.558 234.961C514.813 234.988 514.475 235.036 514.148 234.995C511.638 234.682 508.567 235.752 507.165 232.573C506.694 231.507 507.729 230.643 508.748 230.449C512.161 229.799 516.1 228.572 518.642 231.472C520.811 233.946 518.032 234.623 515.558 234.961Z" fill="white"/>
<path d="M566.043 208.842C584.918 217.552 600.93 229.494 614.438 244.791C615.62 246.13 617.313 247.281 617.048 249.38C616.868 250.815 615.798 251.71 614.47 252.163C612.694 252.768 611.704 251.505 610.683 250.407C603.197 242.356 595.381 234.686 586.315 228.366C577.551 222.255 568.209 217.219 558.446 212.934C556.122 211.915 553.411 211.2 554.839 207.713C556.348 204.026 558.89 206.014 561.106 206.76C562.677 207.289 564.173 208.037 566.043 208.842Z" fill="white"/>
<path d="M578.187 233.763C592.217 243.659 604.154 255.128 613.353 269.295C614.259 270.691 615.136 272.108 615.961 273.553C616.872 275.146 618.073 276.856 615.8 278.289C613.549 279.709 612.494 278.004 611.469 276.419C607.398 270.122 603.096 264.014 598.04 258.434C590.273 249.86 581.463 242.574 571.78 236.28C569.893 235.054 566.371 234.167 568.618 230.832C570.849 227.52 572.937 230.767 574.972 231.649C576.024 232.104 576.923 232.912 578.187 233.763Z" fill="white"/>
<path d="M623.421 479.44C616.149 485.885 608.384 491.04 600.486 496.02C597.946 497.622 595.843 498.467 593.866 495.137C592.107 492.176 592.062 490.153 595.336 488.18C619.628 473.542 638.989 453.898 653.802 429.778C656.025 426.159 658.125 427.317 660.795 428.805C664.054 430.622 662.933 432.636 661.505 434.976C651.269 451.753 638.823 466.626 623.421 479.44Z" fill="white"/>
<path d="M350.526 415.484C352.077 418.475 353.291 421.247 354.932 423.738C357.339 427.394 355.287 429.166 352.421 430.813C349.353 432.575 347.912 430.821 346.603 428.323C335.374 406.892 327.782 384.378 325.497 360.144C325.012 354.999 324.786 349.879 324.548 344.735C324.402 341.586 324.872 339.66 328.708 339.683C332.131 339.703 333.364 340.907 333.461 344.353C333.912 360.381 336.336 376.106 341.094 391.457C343.613 399.586 346.879 407.404 350.526 415.484Z" fill="white"/>
<path d="M448.816 343.742C449.13 339.826 447.992 336.144 450.834 331.536C452.53 338.582 452.263 344.208 451.21 350.316C448.029 348.557 449.236 346.13 448.816 343.742Z" fill="white"/>
<path d="M135.675 572.431C137.54 570.474 139.29 570.154 141.046 571.923C141.939 572.824 142.133 573.941 141.524 575.104C140.867 576.359 139.879 577.336 138.396 577.037C136.149 576.585 134.969 575.199 135.675 572.431Z" fill="white"/>
<path d="M125.405 575.383C123.798 577.356 122.183 577.759 120.466 576.289C119.36 575.342 119.078 574.04 119.721 572.683C120.451 571.141 121.781 570.413 123.385 570.88C125.397 571.466 126.411 572.834 125.405 575.383Z" fill="white"/>
<path d="M149.387 575.376C147.81 577.533 146.197 577.678 144.532 576.184C143.5 575.257 142.851 574.046 143.58 572.636C144.351 571.143 145.72 570.438 147.315 570.881C149.351 571.446 150.349 572.818 149.387 575.376Z" fill="white"/>
<path d="M133.843 573.888C133.186 576.232 132.008 577.565 129.794 576.942C128.258 576.509 127.263 575.272 127.261 573.611C127.259 572.343 128.112 571.421 129.284 571.038C131.606 570.278 133.136 571.188 133.843 573.888Z" fill="white"/>
<path d="M419.539 409.437C414.988 403.879 411.575 398.007 408.317 392.044C407.64 390.806 406.431 389.134 408.152 388.083C410.218 386.821 411.092 388.879 411.811 390.272C416.25 398.873 422.037 406.503 428.436 413.708C429.291 414.671 430.587 415.749 429.421 417.114C427.998 418.781 426.621 417.45 425.642 416.436C423.575 414.298 421.7 411.975 419.539 409.437Z" fill="white"/>
<path d="M567.825 428.133C569.206 428.586 569.87 429.315 569.485 430.453C568.651 432.917 561.939 436.194 558.303 435.641C559.869 431.088 564.117 430.107 567.825 428.133Z" fill="white"/>
<path d="M62.9222 266.167C67.9959 266.254 72.7133 266.397 77.4239 266.277C79.3834 266.227 80.9639 266.529 80.7287 268.726C80.5108 270.76 78.8903 270.238 77.2836 270.163C72.7078 269.948 68.1094 270.058 63.5271 270.232C62.0674 270.287 60.7594 270.398 60.3775 268.74C59.9989 267.098 61.0245 266.32 62.9222 266.167Z" fill="white"/>
<path d="M464.038 275.941C470.778 272.24 477.241 268.813 484.333 266.778C485.287 266.505 486.216 266.081 487.188 265.945C489.056 265.684 490.966 265.576 491.582 268.017C492.195 270.443 490.64 271.324 488.715 271.837C484.849 272.868 481.068 274.073 477.425 275.796C471.366 278.663 465.674 281.988 460.653 286.513C459.021 287.984 456.814 290.761 454.315 287.879C451.729 284.897 454.316 283.161 456.546 281.525C458.96 279.755 461.33 277.922 464.038 275.941Z" fill="white"/>
<path d="M408.494 296.291C407.653 299.287 406.76 301.959 405.754 304.587C405.389 305.538 404.638 306.374 403.502 306.2C402.975 306.12 402.32 305.564 402.095 305.058C401.237 303.129 405.105 295.725 407.286 295.113C407.557 295.036 408.023 295.654 408.494 296.291Z" fill="white"/>
<path d="M828.306 192.675C830.246 193.792 831.718 193.978 833.602 192.929C835.252 192.009 837.177 192.371 838.358 194.232C839.066 195.348 838.918 196.487 838.06 197.423C836.667 198.944 834.933 199.501 833.268 198.041C831.809 196.763 830.775 197.191 829.368 198.076C827.109 199.498 824.965 198.925 824.269 196.356C823.509 193.548 825.407 192.548 828.306 192.675Z" fill="white"/>
<path d="M853.603 197.82C851.221 199.402 849.57 198.803 848.349 196.766C847.687 195.662 847.769 194.493 848.651 193.552C849.816 192.31 851.354 192.171 852.754 192.92C854.737 193.982 854.85 195.699 853.603 197.82Z" fill="white"/>
<path d="M845.107 193.003C847.006 194.655 847.254 196.274 845.618 197.819C844.458 198.915 843.027 199.228 841.592 198.22C840.449 197.417 839.641 196.288 840.046 194.885C840.761 192.409 842.7 192.346 845.107 193.003Z" fill="white"/>
</svg>
